<svg width="403" height="263" viewBox="0 0 403 263" fill="none" xmlns="http://www.w3.org/2000/svg">
<rect width="403" height="263" rx="5" fill="url(#paint0_linear)"/>
<circle opacity="0.9" cx="313.5" cy="220.5" r="21.5" fill="#EB001B"/>
<circle opacity="0.9" cx="339.5" cy="220.5" r="21.5" fill="#F69D1B"/>
<path d="M37.9844 41.7012C37.3711 41.998 36.5703 42.1465 35.582 42.1465C34.293 42.1465 33.2793 41.7676 32.541 41.0098C31.8027 40.252 31.4336 39.2422 31.4336 37.9805C31.4336 36.6367 31.8477 35.5469 32.6758 34.7109C33.5078 33.875 34.5859 33.457 35.9102 33.457C36.7305 33.457 37.4219 33.5605 37.9844 33.7676V35.5898C37.4219 35.2539 36.7812 35.0859 36.0625 35.0859C35.2734 35.0859 34.6367 35.334 34.1523 35.8301C33.668 36.3262 33.4258 36.998 33.4258 37.8457C33.4258 38.6582 33.6543 39.3066 34.1113 39.791C34.5684 40.2715 35.1836 40.5117 35.957 40.5117C36.6953 40.5117 37.3711 40.332 37.9844 39.9727V41.7012ZM46.8379 42H44.7754L44.1777 40.1309H41.1895L40.5977 42H38.5469L41.6055 33.5977H43.8496L46.8379 42ZM43.7441 38.6777L42.8418 35.8535C42.7754 35.6426 42.7285 35.3906 42.7012 35.0977H42.6543C42.6348 35.3438 42.5859 35.5879 42.5078 35.8301L41.5938 38.6777H43.7441ZM54.9355 42H52.7617L51.4551 39.8379C51.3574 39.6738 51.2637 39.5273 51.1738 39.3984C51.084 39.2695 50.9922 39.1602 50.8984 39.0703C50.8086 38.9766 50.7129 38.9062 50.6113 38.8594C50.5137 38.8086 50.4062 38.7832 50.2891 38.7832H49.7793V42H47.8867V33.5977H50.8867C52.9258 33.5977 53.9453 34.3594 53.9453 35.8828C53.9453 36.1758 53.9004 36.4473 53.8105 36.6973C53.7207 36.9434 53.5938 37.166 53.4297 37.3652C53.2656 37.5645 53.0664 37.7363 52.832 37.8809C52.6016 38.0254 52.3438 38.1387 52.0586 38.2207V38.2441C52.1836 38.2832 52.3047 38.3477 52.4219 38.4375C52.5391 38.5234 52.6523 38.625 52.7617 38.7422C52.8711 38.8594 52.9746 38.9863 53.0723 39.123C53.1738 39.2559 53.2656 39.3867 53.3477 39.5156L54.9355 42ZM49.7793 35.0156V37.3535H50.5996C51.0059 37.3535 51.332 37.2363 51.5781 37.002C51.8281 36.7637 51.9531 36.4688 51.9531 36.1172C51.9531 35.3828 51.5137 35.0156 50.6348 35.0156H49.7793ZM55.7266 42V33.5977H58.7031C61.6875 33.5977 63.1797 34.9629 63.1797 37.6934C63.1797 39.002 62.7715 40.0469 61.9551 40.8281C61.1426 41.6094 60.0586 42 58.7031 42H55.7266ZM57.6191 35.1387V40.4648H58.5566C59.377 40.4648 60.0195 40.2188 60.4844 39.7266C60.9531 39.2344 61.1875 38.5645 61.1875 37.7168C61.1875 36.916 60.9551 36.2871 60.4902 35.8301C60.0293 35.3691 59.3809 35.1387 58.5449 35.1387H57.6191ZM75.4492 42H73.5391L70.0762 36.7207C69.873 36.4121 69.7324 36.1797 69.6543 36.0234H69.6309C69.6621 36.3203 69.6777 36.7734 69.6777 37.3828V42H67.8906V33.5977H69.9297L73.2637 38.7129C73.416 38.9434 73.5566 39.1719 73.6855 39.3984H73.709C73.6777 39.2031 73.6621 38.8184 73.6621 38.2441V33.5977H75.4492V42ZM84.2207 38.3613C84.2207 40.8848 83.0449 42.1465 80.6934 42.1465C78.4121 42.1465 77.2715 40.9141 77.2715 38.4492V33.5977H79.1699V38.4727C79.1699 39.832 79.7012 40.5117 80.7637 40.5117C81.8066 40.5117 82.3281 39.8555 82.3281 38.543V33.5977H84.2207V38.3613ZM95.6289 42H93.7598V36.9727C93.7598 36.4297 93.7832 35.8301 93.8301 35.1738H93.7832C93.6855 35.6895 93.5977 36.0605 93.5195 36.2871L91.5508 42H90.0039L88 36.3457C87.9453 36.1934 87.8574 35.8027 87.7363 35.1738H87.6836C87.7344 36.002 87.7598 36.7285 87.7598 37.3535V42H86.0547V33.5977H88.8262L90.543 38.5781C90.6797 38.9766 90.7793 39.377 90.8418 39.7793H90.877C90.9824 39.3145 91.0938 38.9102 91.2109 38.5664L92.9277 33.5977H95.6289V42ZM97.5391 42V33.5977H100.598C101.535 33.5977 102.256 33.7695 102.76 34.1133C103.264 34.457 103.516 34.9414 103.516 35.5664C103.516 36.0195 103.361 36.416 103.053 36.7559C102.748 37.0957 102.357 37.332 101.881 37.4648V37.4883C102.479 37.5625 102.955 37.7832 103.311 38.1504C103.67 38.5176 103.85 38.9648 103.85 39.4922C103.85 40.2617 103.574 40.873 103.023 41.3262C102.473 41.7754 101.721 42 100.768 42H97.5391ZM99.4316 34.9922V36.9844H100.264C100.654 36.9844 100.961 36.8906 101.184 36.7031C101.41 36.5117 101.523 36.25 101.523 35.918C101.523 35.3008 101.062 34.9922 100.141 34.9922H99.4316ZM99.4316 38.3906V40.6055H100.457C100.895 40.6055 101.236 40.5039 101.482 40.3008C101.732 40.0977 101.857 39.8203 101.857 39.4688C101.857 39.1328 101.734 38.8691 101.488 38.6777C101.246 38.4863 100.906 38.3906 100.469 38.3906H99.4316ZM110.277 42H105.238V33.5977H110.084V35.1387H107.131V37.0078H109.879V38.543H107.131V40.4648H110.277V42ZM118.674 42H116.5L115.193 39.8379C115.096 39.6738 115.002 39.5273 114.912 39.3984C114.822 39.2695 114.73 39.1602 114.637 39.0703C114.547 38.9766 114.451 38.9062 114.35 38.8594C114.252 38.8086 114.145 38.7832 114.027 38.7832H113.518V42H111.625V33.5977H114.625C116.664 33.5977 117.684 34.3594 117.684 35.8828C117.684 36.1758 117.639 36.4473 117.549 36.6973C117.459 36.9434 117.332 37.166 117.168 37.3652C117.004 37.5645 116.805 37.7363 116.57 37.8809C116.34 38.0254 116.082 38.1387 115.797 38.2207V38.2441C115.922 38.2832 116.043 38.3477 116.16 38.4375C116.277 38.5234 116.391 38.625 116.5 38.7422C116.609 38.8594 116.713 38.9863 116.811 39.123C116.912 39.2559 117.004 39.3867 117.086 39.5156L118.674 42ZM113.518 35.0156V37.3535H114.338C114.744 37.3535 115.07 37.2363 115.316 37.002C115.566 36.7637 115.691 36.4688 115.691 36.1172C115.691 35.3828 115.252 35.0156 114.373 35.0156H113.518Z" fill="white"/>
<path d="M37 177H31.9609V168.598H36.8066V170.139H33.8535V172.008H36.6016V173.543H33.8535V175.465H37V177ZM45.4551 177H43.2109L41.7637 174.264C41.709 174.162 41.6523 173.975 41.5938 173.701H41.5703C41.543 173.83 41.4785 174.025 41.377 174.287L39.9238 177H37.668L40.3457 172.799L37.8965 168.598H40.1992L41.4004 171.117C41.4941 171.316 41.5781 171.553 41.6523 171.826H41.6758C41.7227 171.662 41.8105 171.418 41.9395 171.094L43.2754 168.598H45.3848L42.8652 172.764L45.4551 177ZM48.3496 174.105V177H46.457V168.598H49.4219C51.5391 168.598 52.5977 169.49 52.5977 171.275C52.5977 172.119 52.293 172.803 51.6836 173.326C51.0781 173.846 50.2676 174.105 49.252 174.105H48.3496ZM48.3496 170.051V172.67H49.0938C50.1016 172.67 50.6055 172.229 50.6055 171.346C50.6055 170.482 50.1016 170.051 49.0938 170.051H48.3496ZM55.7207 177H53.8281V168.598H55.7207V177ZM64.6855 177H62.5117L61.2051 174.838C61.1074 174.674 61.0137 174.527 60.9238 174.398C60.834 174.27 60.7422 174.16 60.6484 174.07C60.5586 173.977 60.4629 173.906 60.3613 173.859C60.2637 173.809 60.1562 173.783 60.0391 173.783H59.5293V177H57.6367V168.598H60.6367C62.6758 168.598 63.6953 169.359 63.6953 170.883C63.6953 171.176 63.6504 171.447 63.5605 171.697C63.4707 171.943 63.3438 172.166 63.1797 172.365C63.0156 172.564 62.8164 172.736 62.582 172.881C62.3516 173.025 62.0938 173.139 61.8086 173.221V173.244C61.9336 173.283 62.0547 173.348 62.1719 173.438C62.2891 173.523 62.4023 173.625 62.5117 173.742C62.6211 173.859 62.7246 173.986 62.8223 174.123C62.9238 174.256 63.0156 174.387 63.0977 174.516L64.6855 177ZM59.5293 170.016V172.354H60.3496C60.7559 172.354 61.082 172.236 61.3281 172.002C61.5781 171.764 61.7031 171.469 61.7031 171.117C61.7031 170.383 61.2637 170.016 60.3848 170.016H59.5293ZM72.8652 177H70.8027L70.2051 175.131H67.2168L66.625 177H64.5742L67.6328 168.598H69.877L72.8652 177ZM69.7715 173.678L68.8691 170.854C68.8027 170.643 68.7559 170.391 68.7285 170.098H68.6816C68.6621 170.344 68.6133 170.588 68.5352 170.83L67.6211 173.678H69.7715ZM78.9707 170.139H76.5742V177H74.6758V170.139H72.291V168.598H78.9707V170.139ZM81.9941 177H80.1016V168.598H81.9941V177ZM87.4609 177.146C86.2578 177.146 85.2773 176.756 84.5195 175.975C83.7617 175.189 83.3828 174.168 83.3828 172.91C83.3828 171.582 83.7676 170.508 84.5371 169.688C85.3066 168.867 86.3262 168.457 87.5957 168.457C88.7949 168.457 89.7637 168.85 90.502 169.635C91.2441 170.42 91.6152 171.455 91.6152 172.74C91.6152 174.061 91.2305 175.125 90.4609 175.934C89.6953 176.742 88.6953 177.146 87.4609 177.146ZM87.543 170.086C86.8789 170.086 86.3516 170.336 85.9609 170.836C85.5703 171.332 85.375 171.99 85.375 172.811C85.375 173.643 85.5703 174.301 85.9609 174.785C86.3516 175.27 86.8633 175.512 87.4961 175.512C88.1484 175.512 88.666 175.277 89.0488 174.809C89.4316 174.336 89.623 173.682 89.623 172.846C89.623 171.975 89.4375 171.297 89.0664 170.812C88.6953 170.328 88.1875 170.086 87.543 170.086ZM100.574 177H98.6641L95.2012 171.721C94.998 171.412 94.8574 171.18 94.7793 171.023H94.7559C94.7871 171.32 94.8027 171.773 94.8027 172.383V177H93.0156V168.598H95.0547L98.3887 173.713C98.541 173.943 98.6816 174.172 98.8105 174.398H98.834C98.8027 174.203 98.7871 173.818 98.7871 173.244V168.598H100.574V177ZM105.812 177V168.598H108.789C111.773 168.598 113.266 169.963 113.266 172.693C113.266 174.002 112.857 175.047 112.041 175.828C111.229 176.609 110.145 177 108.789 177H105.812ZM107.705 170.139V175.465H108.643C109.463 175.465 110.105 175.219 110.57 174.727C111.039 174.234 111.273 173.564 111.273 172.717C111.273 171.916 111.041 171.287 110.576 170.83C110.115 170.369 109.467 170.139 108.631 170.139H107.705ZM121.861 177H119.799L119.201 175.131H116.213L115.621 177H113.57L116.629 168.598H118.873L121.861 177ZM118.768 173.678L117.865 170.854C117.799 170.643 117.752 170.391 117.725 170.098H117.678C117.658 170.344 117.609 170.588 117.531 170.83L116.617 173.678H118.768ZM127.967 170.139H125.57V177H123.672V170.139H121.287V168.598H127.967V170.139ZM134.137 177H129.098V168.598H133.943V170.139H130.99V172.008H133.738V173.543H130.99V175.465H134.137V177Z" fill="white"/>
<path d="M37.9727 58.4971V65.1182H39.2324V66.8467H37.9727V69H35.8633V66.8467H31.2856V65.0376C31.6909 64.5835 32.1108 64.0879 32.5454 63.5508C32.98 63.0088 33.3999 62.4521 33.8052 61.8809C34.2104 61.3096 34.5864 60.7358 34.9331 60.1597C35.2847 59.5786 35.5825 59.0244 35.8267 58.4971H37.9727ZM33.3584 65.1182H35.8633V61.4487C35.6924 61.7661 35.5068 62.0884 35.3066 62.4155C35.1064 62.7378 34.8965 63.0576 34.6768 63.375C34.457 63.6875 34.2349 63.9927 34.0103 64.2905C33.7856 64.5835 33.5684 64.8594 33.3584 65.1182ZM44.57 67.0811H49.0231V69H42.0358V68.209C42.0358 67.6719 42.1262 67.1909 42.3068 66.7661C42.4875 66.3364 42.7146 65.9531 42.988 65.6162C43.2614 65.2744 43.5593 64.9741 43.8815 64.7153C44.2087 64.4517 44.5188 64.2148 44.8117 64.0049C45.1193 63.7852 45.3879 63.5752 45.6174 63.375C45.8518 63.1748 46.0471 62.9771 46.2033 62.7817C46.3645 62.5815 46.4841 62.3813 46.5622 62.1812C46.6403 61.9761 46.6794 61.7588 46.6794 61.5293C46.6794 61.0801 46.5524 60.7407 46.2985 60.5112C46.0446 60.2817 45.6564 60.167 45.134 60.167C44.2307 60.167 43.3664 60.5259 42.5412 61.2437V59.2075C43.4543 58.6167 44.4846 58.3213 45.632 58.3213C46.1643 58.3213 46.6403 58.3921 47.0603 58.5337C47.4851 58.6704 47.8439 58.8682 48.1369 59.127C48.4299 59.3857 48.6521 59.7007 48.8034 60.0718C48.9597 60.438 49.0378 60.8481 49.0378 61.3022C49.0378 61.7856 48.9621 62.2153 48.8107 62.5913C48.6643 62.9673 48.4665 63.3091 48.2175 63.6167C47.9733 63.9243 47.6901 64.2075 47.3679 64.4663C47.0456 64.7202 46.7111 64.9668 46.3645 65.2061C46.1301 65.3721 45.903 65.5381 45.6833 65.7041C45.4685 65.8652 45.278 66.0264 45.112 66.1875C44.946 66.3438 44.8142 66.4976 44.7165 66.6489C44.6188 66.8003 44.57 66.9443 44.57 67.0811ZM54.9979 67.0811H59.4511V69H52.4638V68.209C52.4638 67.6719 52.5541 67.1909 52.7348 66.7661C52.9154 66.3364 53.1425 65.9531 53.4159 65.6162C53.6894 65.2744 53.9872 64.9741 54.3095 64.7153C54.6366 64.4517 54.9467 64.2148 55.2396 64.0049C55.5473 63.7852 55.8158 63.5752 56.0453 63.375C56.2797 63.1748 56.475 62.9771 56.6313 62.7817C56.7924 62.5815 56.912 62.3813 56.9901 62.1812C57.0683 61.9761 57.1073 61.7588 57.1073 61.5293C57.1073 61.0801 56.9804 60.7407 56.7265 60.5112C56.4726 60.2817 56.0844 60.167 55.5619 60.167C54.6586 60.167 53.7943 60.5259 52.9691 61.2437V59.2075C53.8822 58.6167 54.9125 58.3213 56.06 58.3213C56.5922 58.3213 57.0683 58.3921 57.4882 58.5337C57.913 58.6704 58.2719 58.8682 58.5648 59.127C58.8578 59.3857 59.08 59.7007 59.2313 60.0718C59.3876 60.438 59.4657 60.8481 59.4657 61.3022C59.4657 61.7856 59.39 62.2153 59.2387 62.5913C59.0922 62.9673 58.8944 63.3091 58.6454 63.6167C58.4013 63.9243 58.1181 64.2075 57.7958 64.4663C57.4735 64.7202 57.1391 64.9668 56.7924 65.2061C56.558 65.3721 56.331 65.5381 56.1112 65.7041C55.8964 65.8652 55.706 66.0264 55.5399 66.1875C55.3739 66.3438 55.2421 66.4976 55.1444 66.6489C55.0468 66.8003 54.9979 66.9443 54.9979 67.0811ZM69.2564 58.4971V65.1182H70.5162V66.8467H69.2564V69H67.1471V66.8467H62.5694V65.0376C62.9747 64.5835 63.3946 64.0879 63.8292 63.5508C64.2638 63.0088 64.6837 62.4521 65.089 61.8809C65.4942 61.3096 65.8702 60.7358 66.2169 60.1597C66.5685 59.5786 66.8663 59.0244 67.1104 58.4971H69.2564ZM64.6422 65.1182H67.1471V61.4487C66.9762 61.7661 66.7906 62.0884 66.5904 62.4155C66.3902 62.7378 66.1803 63.0576 65.9605 63.375C65.7408 63.6875 65.5187 63.9927 65.294 64.2905C65.0694 64.5835 64.8521 64.8594 64.6422 65.1182ZM79.6973 68.729V66.7515C80.415 67.1909 81.1792 67.4106 81.9897 67.4106C82.6001 67.4106 83.0762 67.2666 83.418 66.9785C83.7646 66.6855 83.938 66.29 83.938 65.792C83.938 64.752 83.2031 64.2319 81.7334 64.2319C81.1914 64.2319 80.5664 64.2734 79.8584 64.3564L80.2539 58.4971H85.813V60.3867H82.019L81.8726 62.4888C82.2485 62.4595 82.5732 62.4448 82.8467 62.4448C83.9258 62.4448 84.7705 62.728 85.3809 63.2944C85.9912 63.8608 86.2964 64.6226 86.2964 65.5796C86.2964 66.6392 85.9326 67.5059 85.2051 68.1797C84.4775 68.8486 83.4912 69.1831 82.2461 69.1831C81.2354 69.1831 80.3857 69.0317 79.6973 68.729ZM96.0578 58.4971V65.1182H97.3176V66.8467H96.0578V69H93.9484V66.8467H89.3708V65.0376C89.7761 64.5835 90.196 64.0879 90.6306 63.5508C91.0651 63.0088 91.4851 62.4521 91.8903 61.8809C92.2956 61.3096 92.6716 60.7358 93.0183 60.1597C93.3698 59.5786 93.6677 59.0244 93.9118 58.4971H96.0578ZM91.4436 65.1182H93.9484V61.4487C93.7775 61.7661 93.592 62.0884 93.3918 62.4155C93.1916 62.7378 92.9816 63.0576 92.7619 63.375C92.5422 63.6875 92.32 63.9927 92.0954 64.2905C91.8708 64.5835 91.6535 64.8594 91.4436 65.1182ZM100.37 68.6558V66.6416C101.073 67.1543 101.893 67.4106 102.831 67.4106C103.422 67.4106 103.881 67.2837 104.208 67.0298C104.54 66.7759 104.706 66.4219 104.706 65.9678C104.706 65.499 104.501 65.1377 104.091 64.8838C103.685 64.6299 103.126 64.5029 102.413 64.5029H101.439V62.7305H102.34C103.707 62.7305 104.391 62.2764 104.391 61.3682C104.391 60.5137 103.866 60.0864 102.816 60.0864C102.113 60.0864 101.43 60.3135 100.766 60.7676V58.8779C101.503 58.5068 102.362 58.3213 103.344 58.3213C104.418 58.3213 105.253 58.563 105.849 59.0464C106.449 59.5298 106.749 60.1572 106.749 60.9287C106.749 62.3008 106.054 63.1602 104.662 63.5068V63.5435C105.404 63.6362 105.99 63.9072 106.42 64.3564C106.85 64.8008 107.064 65.3477 107.064 65.9971C107.064 66.9785 106.705 67.7549 105.988 68.3262C105.27 68.8975 104.279 69.1831 103.014 69.1831C101.93 69.1831 101.049 69.0073 100.37 68.6558ZM110.798 68.6558V66.6416C111.501 67.1543 112.321 67.4106 113.259 67.4106C113.85 67.4106 114.309 67.2837 114.636 67.0298C114.968 66.7759 115.134 66.4219 115.134 65.9678C115.134 65.499 114.929 65.1377 114.519 64.8838C114.113 64.6299 113.554 64.5029 112.841 64.5029H111.867V62.7305H112.768C114.135 62.7305 114.819 62.2764 114.819 61.3682C114.819 60.5137 114.294 60.0864 113.244 60.0864C112.541 60.0864 111.858 60.3135 111.193 60.7676V58.8779C111.931 58.5068 112.79 58.3213 113.772 58.3213C114.846 58.3213 115.681 58.563 116.276 59.0464C116.877 59.5298 117.177 60.1572 117.177 60.9287C117.177 62.3008 116.482 63.1602 115.09 63.5068V63.5435C115.832 63.6362 116.418 63.9072 116.848 64.3564C117.277 64.8008 117.492 65.3477 117.492 65.9971C117.492 66.9785 117.133 67.7549 116.416 68.3262C115.698 68.8975 114.707 69.1831 113.442 69.1831C112.358 69.1831 111.477 69.0073 110.798 68.6558ZM134.276 63.2432C134.276 64.1758 134.173 65.0107 133.968 65.748C133.763 66.4805 133.463 67.1006 133.067 67.6084C132.677 68.1162 132.198 68.5068 131.632 68.7803C131.065 69.0488 130.423 69.1831 129.706 69.1831C128.846 69.1831 128.106 69.0464 127.486 68.7729V66.8687C128.038 67.23 128.702 67.4106 129.479 67.4106C130.274 67.4106 130.897 67.1396 131.346 66.5977C131.795 66.0557 132.022 65.272 132.027 64.2466L131.983 64.2319C131.52 64.9204 130.814 65.2646 129.867 65.2646C129.437 65.2646 129.039 65.1841 128.673 65.0229C128.312 64.8618 127.997 64.6396 127.728 64.3564C127.464 64.0684 127.257 63.7266 127.105 63.3311C126.959 62.9355 126.886 62.501 126.886 62.0273C126.886 61.4756 126.976 60.9727 127.157 60.5186C127.337 60.0645 127.589 59.6738 127.911 59.3467C128.238 59.0195 128.629 58.7681 129.083 58.5923C129.537 58.4116 130.04 58.3213 130.592 58.3213C131.163 58.3213 131.676 58.4336 132.13 58.6582C132.584 58.8779 132.97 59.1978 133.287 59.6177C133.609 60.0376 133.854 60.5527 134.02 61.1631C134.19 61.7734 134.276 62.4668 134.276 63.2432ZM131.939 62.0127C131.939 61.7441 131.905 61.4927 131.837 61.2583C131.769 61.019 131.673 60.814 131.551 60.6431C131.429 60.4722 131.28 60.3379 131.104 60.2402C130.929 60.1377 130.736 60.0864 130.526 60.0864C130.326 60.0864 130.14 60.1304 129.969 60.2183C129.803 60.3062 129.659 60.4282 129.537 60.5845C129.415 60.7358 129.32 60.9189 129.251 61.1338C129.183 61.3486 129.149 61.5806 129.149 61.8296C129.149 62.103 129.183 62.3472 129.251 62.562C129.32 62.772 129.415 62.9502 129.537 63.0967C129.664 63.2432 129.815 63.3555 129.991 63.4336C130.167 63.5068 130.362 63.5435 130.577 63.5435C130.782 63.5435 130.968 63.5044 131.134 63.4263C131.3 63.3433 131.441 63.2334 131.559 63.0967C131.681 62.96 131.773 62.7988 131.837 62.6133C131.905 62.4277 131.939 62.2275 131.939 62.0127ZM137.599 68.6558V66.6416C138.302 67.1543 139.123 67.4106 140.06 67.4106C140.651 67.4106 141.11 67.2837 141.437 67.0298C141.769 66.7759 141.935 66.4219 141.935 65.9678C141.935 65.499 141.73 65.1377 141.32 64.8838C140.915 64.6299 140.356 64.5029 139.643 64.5029H138.669V62.7305H139.57C140.937 62.7305 141.62 62.2764 141.62 61.3682C141.62 60.5137 141.095 60.0864 140.046 60.0864C139.342 60.0864 138.659 60.3135 137.995 60.7676V58.8779C138.732 58.5068 139.592 58.3213 140.573 58.3213C141.647 58.3213 142.482 58.563 143.078 59.0464C143.678 59.5298 143.979 60.1572 143.979 60.9287C143.979 62.3008 143.283 63.1602 141.891 63.5068V63.5435C142.633 63.6362 143.219 63.9072 143.649 64.3564C144.079 64.8008 144.294 65.3477 144.294 65.9971C144.294 66.9785 143.935 67.7549 143.217 68.3262C142.499 68.8975 141.508 69.1831 140.243 69.1831C139.159 69.1831 138.278 69.0073 137.599 68.6558ZM147.756 66.1729C147.756 65.8799 147.798 65.5991 147.881 65.3306C147.969 65.0571 148.098 64.8057 148.269 64.5762C148.44 64.3418 148.652 64.1343 148.906 63.9536C149.165 63.7681 149.468 63.6167 149.814 63.4995C149.282 63.2358 148.87 62.8989 148.577 62.4888C148.284 62.0737 148.137 61.6147 148.137 61.1118C148.137 60.7114 148.22 60.3403 148.386 59.9985C148.557 59.6567 148.791 59.3613 149.089 59.1123C149.387 58.8633 149.741 58.6704 150.151 58.5337C150.566 58.3921 151.018 58.3213 151.506 58.3213C152.004 58.3213 152.461 58.3921 152.876 58.5337C153.291 58.6704 153.647 58.8633 153.945 59.1123C154.248 59.3564 154.482 59.647 154.648 59.9839C154.814 60.3208 154.897 60.687 154.897 61.0825C154.897 61.5806 154.741 62.0347 154.429 62.4448C154.116 62.8501 153.684 63.1846 153.132 63.4482C153.474 63.5654 153.774 63.7168 154.033 63.9023C154.292 64.083 154.509 64.2905 154.685 64.5249C154.861 64.7593 154.993 65.0156 155.08 65.2939C155.168 65.5674 155.212 65.853 155.212 66.1509C155.212 66.6001 155.122 67.0103 154.941 67.3813C154.761 67.7476 154.504 68.0649 154.172 68.3335C153.845 68.5972 153.452 68.8022 152.993 68.9487C152.539 69.0952 152.036 69.1685 151.484 69.1685C150.942 69.1685 150.442 69.0977 149.983 68.9561C149.529 68.8096 149.136 68.6045 148.804 68.3408C148.476 68.0771 148.22 67.7622 148.035 67.396C147.849 67.0249 147.756 66.6172 147.756 66.1729ZM149.946 65.9751C149.946 66.2144 149.983 66.4292 150.056 66.6196C150.129 66.8101 150.234 66.9712 150.371 67.103C150.508 67.2349 150.669 67.3374 150.854 67.4106C151.045 67.479 151.257 67.5132 151.492 67.5132C151.716 67.5132 151.921 67.4766 152.107 67.4033C152.297 67.3301 152.461 67.2275 152.598 67.0957C152.734 66.9639 152.842 66.8027 152.92 66.6123C152.998 66.4219 153.037 66.2095 153.037 65.9751C153.037 65.7651 153 65.5649 152.927 65.3745C152.854 65.1841 152.749 65.0205 152.612 64.8838C152.475 64.7422 152.312 64.6299 152.121 64.5469C151.936 64.4639 151.726 64.4224 151.492 64.4224C151.272 64.4224 151.067 64.4614 150.876 64.5396C150.686 64.6128 150.522 64.7202 150.386 64.8618C150.249 64.9985 150.142 65.1621 150.063 65.3525C149.985 65.543 149.946 65.7505 149.946 65.9751ZM150.268 61.3242C150.268 61.5098 150.3 61.6855 150.364 61.8516C150.432 62.0127 150.522 62.1543 150.635 62.2764C150.747 62.3936 150.879 62.4863 151.03 62.5547C151.186 62.623 151.35 62.6572 151.521 62.6572C151.697 62.6572 151.86 62.623 152.012 62.5547C152.163 62.4863 152.295 62.3911 152.407 62.269C152.524 62.147 152.615 62.0054 152.678 61.8442C152.746 61.6831 152.781 61.5098 152.781 61.3242C152.781 61.1338 152.749 60.958 152.685 60.7969C152.622 60.6309 152.532 60.4893 152.414 60.3721C152.302 60.25 152.168 60.1548 152.012 60.0864C151.86 60.0181 151.697 59.9839 151.521 59.9839C151.335 59.9839 151.164 60.0205 151.008 60.0938C150.857 60.1621 150.725 60.2573 150.613 60.3794C150.505 60.4966 150.42 60.6382 150.356 60.8042C150.298 60.9653 150.268 61.1387 150.268 61.3242ZM161.854 69.1831C159.354 69.1831 158.104 67.4277 158.104 63.917C158.104 62.0957 158.441 60.709 159.114 59.7568C159.793 58.7998 160.775 58.3213 162.059 58.3213C164.5 58.3213 165.721 60.106 165.721 63.6753C165.721 65.4526 165.386 66.8149 164.717 67.7622C164.053 68.7095 163.099 69.1831 161.854 69.1831ZM161.956 60.0864C160.955 60.0864 160.455 61.3438 160.455 63.8584C160.455 66.2266 160.945 67.4106 161.927 67.4106C162.884 67.4106 163.362 66.1899 163.362 63.7485C163.362 61.3071 162.894 60.0864 161.956 60.0864ZM180.065 58.2627V69H177.758V60.8701C177.631 60.9824 177.48 61.0898 177.304 61.1924C177.133 61.29 176.95 61.3804 176.755 61.4634C176.56 61.5415 176.357 61.6099 176.147 61.6685C175.937 61.7222 175.729 61.7612 175.524 61.7856V59.8374C176.125 59.6616 176.691 59.437 177.224 59.1636C177.756 58.8901 178.237 58.5898 178.667 58.2627H180.065ZM188.655 69.1831C186.155 69.1831 184.905 67.4277 184.905 63.917C184.905 62.0957 185.242 60.709 185.916 59.7568C186.594 58.7998 187.576 58.3213 188.86 58.3213C191.301 58.3213 192.522 60.106 192.522 63.6753C192.522 65.4526 192.188 66.8149 191.519 67.7622C190.855 68.7095 189.9 69.1831 188.655 69.1831ZM188.758 60.0864C187.757 60.0864 187.256 61.3438 187.256 63.8584C187.256 66.2266 187.747 67.4106 188.728 67.4106C189.685 67.4106 190.164 66.1899 190.164 63.7485C190.164 61.3071 189.695 60.0864 188.758 60.0864ZM195.684 68.6558V66.6416C196.388 67.1543 197.208 67.4106 198.145 67.4106C198.736 67.4106 199.195 67.2837 199.522 67.0298C199.854 66.7759 200.02 66.4219 200.02 65.9678C200.02 65.499 199.815 65.1377 199.405 64.8838C199 64.6299 198.441 64.5029 197.728 64.5029H196.754V62.7305H197.655C199.022 62.7305 199.705 62.2764 199.705 61.3682C199.705 60.5137 199.181 60.0864 198.131 60.0864C197.428 60.0864 196.744 60.3135 196.08 60.7676V58.8779C196.817 58.5068 197.677 58.3213 198.658 58.3213C199.732 58.3213 200.567 58.563 201.163 59.0464C201.764 59.5298 202.064 60.1572 202.064 60.9287C202.064 62.3008 201.368 63.1602 199.976 63.5068V63.5435C200.719 63.6362 201.305 63.9072 201.734 64.3564C202.164 64.8008 202.379 65.3477 202.379 65.9971C202.379 66.9785 202.02 67.7549 201.302 68.3262C200.584 68.8975 199.593 69.1831 198.329 69.1831C197.245 69.1831 196.363 69.0073 195.684 68.6558ZM209.511 69.1831C207.011 69.1831 205.761 67.4277 205.761 63.917C205.761 62.0957 206.098 60.709 206.772 59.7568C207.45 58.7998 208.432 58.3213 209.716 58.3213C212.157 58.3213 213.378 60.106 213.378 63.6753C213.378 65.4526 213.044 66.8149 212.375 67.7622C211.711 68.7095 210.756 69.1831 209.511 69.1831ZM209.613 60.0864C208.612 60.0864 208.112 61.3438 208.112 63.8584C208.112 66.2266 208.603 67.4106 209.584 67.4106C210.541 67.4106 211.02 66.1899 211.02 63.7485C211.02 61.3071 210.551 60.0864 209.613 60.0864Z" fill="white"/>
<path d="M35.2554 204.183C32.7554 204.183 31.5054 202.428 31.5054 198.917C31.5054 197.096 31.8423 195.709 32.5161 194.757C33.1948 193.8 34.1763 193.321 35.4604 193.321C37.9019 193.321 39.1226 195.106 39.1226 198.675C39.1226 200.453 38.7881 201.815 38.1191 202.762C37.4551 203.709 36.5005 204.183 35.2554 204.183ZM35.3579 195.086C34.3569 195.086 33.8564 196.344 33.8564 198.858C33.8564 201.227 34.3472 202.411 35.3286 202.411C36.2856 202.411 36.7642 201.19 36.7642 198.749C36.7642 196.307 36.2954 195.086 35.3579 195.086ZM42.2849 203.656V201.642C42.988 202.154 43.8083 202.411 44.7458 202.411C45.3366 202.411 45.7956 202.284 46.1228 202.03C46.4548 201.776 46.6208 201.422 46.6208 200.968C46.6208 200.499 46.4157 200.138 46.0056 199.884C45.6003 199.63 45.0412 199.503 44.3283 199.503H43.3542V197.73H44.2551C45.6223 197.73 46.3059 197.276 46.3059 196.368C46.3059 195.514 45.781 195.086 44.7312 195.086C44.028 195.086 43.3444 195.313 42.6804 195.768V193.878C43.4177 193.507 44.2771 193.321 45.2585 193.321C46.3327 193.321 47.1677 193.563 47.7634 194.046C48.364 194.53 48.6643 195.157 48.6643 195.929C48.6643 197.301 47.9685 198.16 46.5769 198.507V198.543C47.319 198.636 47.905 198.907 48.3347 199.356C48.7644 199.801 48.9792 200.348 48.9792 200.997C48.9792 201.979 48.6203 202.755 47.9025 203.326C47.1848 203.897 46.1936 204.183 44.9289 204.183C43.8449 204.183 42.9636 204.007 42.2849 203.656ZM58.682 193.497L53.5624 205.743H51.497L56.5946 193.497H58.682ZM63.4483 202.081H67.9015V204H60.9142V203.209C60.9142 202.672 61.0045 202.191 61.1852 201.766C61.3658 201.336 61.5929 200.953 61.8663 200.616C62.1397 200.274 62.4376 199.974 62.7599 199.715C63.087 199.452 63.3971 199.215 63.69 199.005C63.9977 198.785 64.2662 198.575 64.4957 198.375C64.7301 198.175 64.9254 197.977 65.0816 197.782C65.2428 197.582 65.3624 197.381 65.4405 197.181C65.5187 196.976 65.5577 196.759 65.5577 196.529C65.5577 196.08 65.4308 195.741 65.1769 195.511C64.9229 195.282 64.5348 195.167 64.0123 195.167C63.109 195.167 62.2447 195.526 61.4195 196.244V194.208C62.3326 193.617 63.3629 193.321 64.5104 193.321C65.0426 193.321 65.5187 193.392 65.9386 193.534C66.3634 193.67 66.7223 193.868 67.0152 194.127C67.3082 194.386 67.5304 194.701 67.6817 195.072C67.838 195.438 67.9161 195.848 67.9161 196.302C67.9161 196.786 67.8404 197.215 67.6891 197.591C67.5426 197.967 67.3448 198.309 67.0958 198.617C66.8517 198.924 66.5685 199.208 66.2462 199.466C65.9239 199.72 65.5895 199.967 65.2428 200.206C65.0084 200.372 64.7813 200.538 64.5616 200.704C64.3468 200.865 64.1563 201.026 63.9903 201.188C63.8243 201.344 63.6925 201.498 63.5948 201.649C63.4972 201.8 63.4483 201.944 63.4483 202.081ZM77.7068 193.497V200.118H78.9666V201.847H77.7068V204H75.5975V201.847H71.0198V200.038C71.4251 199.583 71.845 199.088 72.2796 198.551C72.7142 198.009 73.1341 197.452 73.5394 196.881C73.9446 196.31 74.3206 195.736 74.6673 195.16C75.0188 194.579 75.3167 194.024 75.5608 193.497H77.7068ZM73.0926 200.118H75.5975V196.449C75.4266 196.766 75.241 197.088 75.0408 197.416C74.8406 197.738 74.6307 198.058 74.4109 198.375C74.1912 198.688 73.969 198.993 73.7444 199.291C73.5198 199.583 73.3025 199.859 73.0926 200.118Z" fill="white"/>
<path d="M36.5811 231.833C36.5811 233.239 36.2539 234.315 35.5996 235.062C34.9502 235.81 34.0078 236.183 32.7725 236.183C32.2207 236.183 31.7104 236.088 31.2417 235.897V233.678C31.647 233.986 32.1011 234.14 32.604 234.14C33.6831 234.14 34.2227 233.339 34.2227 231.737V225.497H36.5811V231.833ZM42.678 236.183C41.428 236.183 40.4441 235.834 39.7264 235.136C39.0135 234.433 38.657 233.48 38.657 232.279C38.657 231.039 39.0281 230.07 39.7703 229.372C40.5125 228.668 41.5159 228.317 42.7806 228.317C44.0257 228.317 45.0022 228.668 45.7103 229.372C46.4183 230.07 46.7723 230.995 46.7723 232.147C46.7723 233.393 46.4061 234.376 45.6736 235.099C44.9461 235.822 43.9476 236.183 42.678 236.183ZM42.7366 230.089C42.1897 230.089 41.7649 230.277 41.4622 230.653C41.1595 231.029 41.0081 231.562 41.0081 232.25C41.0081 233.69 41.5892 234.411 42.7513 234.411C43.8597 234.411 44.4139 233.671 44.4139 232.191C44.4139 230.79 43.8548 230.089 42.7366 230.089ZM55.9234 236H53.6163V231.737C53.6163 230.639 53.2159 230.089 52.4151 230.089C52.005 230.089 51.6729 230.243 51.419 230.551C51.1651 230.858 51.0382 231.249 51.0382 231.723V236H48.7237V224.896H51.0382V229.613H51.0675C51.6339 228.749 52.4029 228.317 53.3746 228.317C55.0738 228.317 55.9234 229.342 55.9234 231.393V236ZM65.4555 236H63.1483V231.833C63.1483 230.67 62.7333 230.089 61.9032 230.089C61.5028 230.089 61.1732 230.243 60.9145 230.551C60.6557 230.858 60.5263 231.249 60.5263 231.723V236H58.2118V228.5H60.5263V229.687H60.5556C61.1073 228.773 61.9105 228.317 62.9652 228.317C64.6254 228.317 65.4555 229.347 65.4555 231.408V236ZM72.5664 236V225.497H76.2871C80.0176 225.497 81.8828 227.204 81.8828 230.617C81.8828 232.252 81.3726 233.559 80.3521 234.535C79.3364 235.512 77.9814 236 76.2871 236H72.5664ZM74.9321 227.423V234.081H76.104C77.1294 234.081 77.9326 233.773 78.5137 233.158C79.0996 232.543 79.3926 231.706 79.3926 230.646C79.3926 229.645 79.1021 228.859 78.521 228.288C77.9448 227.711 77.1343 227.423 76.0894 227.423H74.9321ZM87.4231 236.183C86.1731 236.183 85.1893 235.834 84.4715 235.136C83.7586 234.433 83.4021 233.48 83.4021 232.279C83.4021 231.039 83.7732 230.07 84.5154 229.372C85.2576 228.668 86.261 228.317 87.5257 228.317C88.7708 228.317 89.7474 228.668 90.4554 229.372C91.1634 230.07 91.5174 230.995 91.5174 232.147C91.5174 233.393 91.1512 234.376 90.4188 235.099C89.6912 235.822 88.6927 236.183 87.4231 236.183ZM87.4817 230.089C86.9349 230.089 86.5101 230.277 86.2073 230.653C85.9046 231.029 85.7532 231.562 85.7532 232.25C85.7532 233.69 86.3343 234.411 87.4964 234.411C88.6048 234.411 89.159 233.671 89.159 232.191C89.159 230.79 88.5999 230.089 87.4817 230.089ZM100.207 232.909H95.3146C95.3927 233.998 96.0787 234.542 97.3727 234.542C98.1979 234.542 98.923 234.347 99.548 233.957V235.626C98.8546 235.998 97.9537 236.183 96.8453 236.183C95.6344 236.183 94.6944 235.849 94.0255 235.18C93.3565 234.506 93.0221 233.568 93.0221 232.367C93.0221 231.122 93.3834 230.136 94.1061 229.408C94.8287 228.681 95.7174 228.317 96.7721 228.317C97.8658 228.317 98.7105 228.642 99.3063 229.291C99.9068 229.94 100.207 230.822 100.207 231.935V232.909ZM98.0611 231.488C98.0611 230.414 97.6266 229.877 96.7574 229.877C96.3863 229.877 96.0641 230.031 95.7906 230.338C95.5221 230.646 95.3585 231.029 95.2999 231.488H98.0611Z" fill="white"/>
<circle cx="61.5" cy="118.5" r="29.5" fill="#FFBF9D"/>
<path d="M36 92.5V145" stroke="#FF9D69" stroke-width="2"/>
<path d="M85.5 93V145" stroke="#FF9D69" stroke-width="2"/>
<path d="M70 106.5H68V100.5H53.5V106.5H51V130H53.5V136H68V130H70V106.5ZM70 106.5H91M36.5 95.5V142.5M36.5 95.5V93M36.5 95.5H50.5M85.5 95.5V142.5M85.5 95.5H71M85.5 95.5V92M85.5 142.5V146M85.5 142.5H71M36.5 142.5H50.5M36.5 142.5V146M71 146V142.5M71 142.5H50.5M50.5 146V142.5M50.5 92V95.5M50.5 95.5H71M71 92V95.5" stroke="#FF9D69" stroke-width="2"/>
<path d="M70 118.5H91" stroke="#FF9D69" stroke-width="2"/>
<path d="M91 129.5H70" stroke="#FF9D69" stroke-width="2"/>
<path d="M51 106.5H31" stroke="#FF9D69" stroke-width="2"/>
<path d="M51 119H31" stroke="#FF9D69" stroke-width="2"/>
<path d="M51 130H31.5" stroke="#FF9D69" stroke-width="2"/>
<path d="M11.5599 109.58C13.2062 111.557 14.1078 114.048 14.1078 116.62C14.1078 119.192 13.2062 121.684 11.5599 123.66" stroke="white" stroke-width="2" stroke-linecap="round" stroke-linejoin="round"/>
<path d="M15.1099 106C17.686 108.922 19.1073 112.684 19.1073 116.58C19.1073 120.476 17.686 124.238 15.1099 127.16" stroke="white" stroke-width="2" stroke-linecap="round" stroke-linejoin="round"/>
<path d="M8.00002 113.11C8.72127 114.125 9.10876 115.34 9.10876 116.585C9.10876 117.83 8.72127 119.045 8.00002 120.06" stroke="white" stroke-width="2" stroke-linecap="round" stroke-linejoin="round"/>
<defs>
<linearGradient id="paint0_linear" x1="6.9455e-08" y1="231.5" x2="403" y2="93" gradientUnits="userSpaceOnUse">
<stop stop-color="#DC5643"/>
<stop offset="1" stop-color="#5F63C6"/>
</linearGradient>
</defs>
</svg>
