<svg width="1201" height="524" viewBox="0 0 1201 524" fill="none" xmlns="http://www.w3.org/2000/svg">
<rect width="1201" height="524" fill="#0E4595"/>
<g id="Visa_Inc._logo 1">
<g id="g4158">
<path id="polygon9" d="M533.352 418.984H452.342L503.011 105.679H584.018L533.352 418.984Z" fill="white"/>
<path id="path11" d="M827.023 113.339C811.044 106.999 785.701 99.9999 754.363 99.9999C674.362 99.9999 618.027 142.66 617.681 203.652C617.017 248.652 658.016 273.646 688.68 288.65C720.022 303.982 730.676 313.989 730.676 327.656C730.357 348.645 705.35 358.32 682.026 358.32C649.683 358.32 632.353 353.332 606.017 341.654L595.35 336.649L584.013 406.979C603.013 415.635 638.019 423.316 674.362 423.653C759.365 423.653 814.704 381.653 815.359 316.656C815.683 280.99 794.033 253.662 747.359 231.331C719.025 216.995 701.673 207.329 701.673 192.661C702.005 179.327 716.35 165.67 748.334 165.67C774.67 165.001 794.02 171.331 808.679 177.666L816.006 180.993L827.023 113.339V113.339Z" fill="white"/>
<path id="path13" d="M934.694 307.991C941.365 289.992 967.037 220.331 967.037 220.331C966.7 221 973.695 202 977.695 190.336L983.357 217.332C983.357 217.332 998.698 292.327 1002.03 307.991C989.368 307.991 950.695 307.991 934.694 307.991ZM1034.69 105.679H972.029C952.706 105.679 938.025 111.341 929.688 131.674L809.357 418.979H894.359C894.359 418.979 908.353 380.31 911.361 371.982C920.686 371.982 1003.38 371.982 1015.37 371.982C1017.7 382.981 1025.04 418.979 1025.04 418.979H1100.05L1034.69 105.679V105.679Z" fill="white"/>
<path id="path15" d="M384.678 105.679L305.342 319.323L296.673 275.993C282.005 225.997 236.004 171.677 184.67 144.667L257.339 418.652H343.006L470.34 105.679H384.678Z" fill="white"/>
<path id="path17" d="M231.672 105.679H101.333L100 112.01C201.672 138.009 269.007 200.68 296.673 276.007L268.339 132.015C263.674 112.005 249.338 106.339 231.672 105.679Z" fill="#FAA61A"/>
</g>
</g>
</svg>
